<?xml version="1.0" encoding="UTF-8"?>
<svg id="Layer_2" data-name="Layer 2" xmlns="http://www.w3.org/2000/svg" viewBox="0 0 470.26 239.98">
  <defs>
    <style>
      .cls-1 {
        fill: none;
      }

      .cls-1, .cls-2, .cls-3, .cls-4, .cls-5, .cls-6, .cls-7 {
        stroke: #231f20;
        stroke-miterlimit: 10;
      }

      .cls-2 {
        fill: #bcbec0;
      }

      .cls-8, .cls-9 {
        stroke-width: 0px;
      }

      .cls-8, .cls-7 {
        fill: #231f20;
      }

      .cls-3 {
        fill: #dcf2fd;
      }

      .cls-4 {
        fill: #f15a29;
      }

      .cls-5 {
        fill: #faa21b;
      }

      .cls-9 {
        fill: #fff;
      }

      .cls-6 {
        fill: #c7eafb;
      }
    </style>
  </defs>
  <g id="Layer_1-2" data-name="Layer 1">
    <g>
      <g>
        <g>
          <circle class="cls-7" cx="376.72" cy="202.88" r="36.59"/>
          <circle class="cls-7" cx="98.82" cy="202.88" r="36.59"/>
          <path class="cls-5" d="M460.81,169.61s0,.08-.01.12c-1.97,26.45-16.49,34.88-16.49,34.88,0,0-8.29-.6-18.37-.6s6.52-45.03-44.44-46.22c-51.56-1.2-55.11,50.37-55.11,50.37h-183.11c1.77,0-.6-26.66-11.85-39.11-11.26-12.44-27.26-11.26-27.26-11.26,0,0-27.86,0-40.3,17.19-12.44,17.18-12.44,33.18-12.44,33.18,0,0-37.93-7.7-45.63-19.55-3.75-5.77-4.98-12.37-5.24-17.63l18.4-.63c-.02-.92.01-3.01.12-7.41.3-11.26-17.77-10.08-17.77-10.08.83-27.21,3.4-110.88,3.89-118.24.6-8.79,12.45-19.05,12.45-19.05C39.57,1.35,97.05.5,97.05.5l133.71.85s146.59-4.15,172.67,5.92c26.07,10.08,21.33,27.35,21.33,27.35,0,0-21.93-2.46-22.52,25.39-.24,11.1-.26,37.93,2.37,46.82,3.97,13.41,7.11,11.26,7.11,11.26l24.88.47h.01l6.52.12s11.35,3.78,15.99,25.86c.87,4.14,1.51,8.92,1.79,14.44.19,3.83.15,7.37-.1,10.63Z"/>
          <circle class="cls-1" cx="98.82" cy="202.88" r="25.74"/>
          <circle class="cls-1" cx="376.72" cy="202.88" r="25.74"/>
          <circle class="cls-2" cx="98.82" cy="202.88" r="16.36"/>
          <circle class="cls-2" cx="376.72" cy="202.88" r="16.36"/>
          <path id="Window" class="cls-6" d="M31.28,77.2c.59,42.67-.59,49.19,36.74,49.78s45.04,5.93,43.85-40.89,6.52-51.46-32.59-51.46-48.59-.09-48,42.57Z"/>
          <path class="cls-6" d="M161.06,34.62s-41.48-9.13-41.48,22.06-2.96,61.41,0,62,4.15,5.93,37.33,5.93,40.3,7.11,40.3-39.7,13.63-51.96-36.15-50.28Z"/>
          <path class="cls-6" d="M244.62,33.38s-39.11-9.07-38.52,23.3-11.27,66.92,19.26,68.31,59.56,3.76,60.15-26.46,15.41-69.24-20.74-66.32-20.15,1.17-20.15,1.17Z"/>
          <path class="cls-6" d="M335.28,32.06s-41.48-8.78-42.67,29.14-9.48,64.77,21.33,63.79,60.44,12.06,61.04-25.27,9.48-68.55-19.56-68.54-20.15.88-20.15.88Z"/>
          <path class="cls-3" d="M436.6,118.56l-24.88-.47s-3.14,2.15-7.11-11.26c-2.63-8.89-2.61-35.72-2.37-46.82.59-27.85,22.52-25.39,22.52-25.39,0,0,5.92,17.69,7.11,37.25,1.18,19.5,3.55,46.53,4.73,46.69Z"/>
          <line class="cls-1" x1="436.61" y1="118.56" x2="436.6" y2="118.56"/>
        </g>
        <line class="cls-1" x1="416.13" y1="51.24" x2="409.01" y2="67.83"/>
        <line class="cls-1" x1="419.37" y1="73.75" x2="412.57" y2="92.72"/>
        <path class="cls-4" d="M18.96,170.35l-18.4.63c-.29-5.56.49-9.63.49-9.63,0,0,.1-3.16.26-8.49,0,0,18.07-1.18,17.77,10.08-.11,4.4-.14,6.49-.12,7.41Z"/>
        <line class="cls-1" x1=".56" y1="170.98" x2=".49" y2="170.98"/>
        <path class="cls-1" d="M19.09,170.35s-.11,1.43-.13,0h.13Z"/>
        <path class="cls-4" d="M464.44,169.61c-2.14.11-3.17.14-3.64.12.01-.04.01-.08.01-.12.25-3.26.29-6.8.1-10.63-.28-5.52-.92-10.3-1.79-14.44h6.19s4.44.77,4.44,11.44.34,13.33-5.31,13.63Z"/>
        <path class="cls-1" d="M460.82,169.61h-.01c-.11.02-.71.11-.01.12"/>
        <path class="cls-9" d="M355.11,226.28c7.34,6.46,17.07,9.92,26.86,9.29,1.35-.09,2.5-1.09,2.5-2.5,0-1.29-1.15-2.59-2.5-2.5-8.46.55-16.95-2.21-23.33-7.83-1.01-.89-2.54-1-3.54,0-.91.91-1.02,2.64,0,3.54h0Z"/>
        <path class="cls-9" d="M378.39,226.58c4.44,1.63,9.73,1.08,13.72-1.49,3.75-2.42,6.48-6.46,7.1-10.9.19-1.34-.33-2.68-1.75-3.08-1.17-.32-2.89.4-3.08,1.75-.26,1.88-.72,3.19-1.66,4.7-.78,1.24-1.93,2.44-3.14,3.22-3.01,1.94-6.51,2.21-9.87.98-1.27-.46-2.74.52-3.08,1.75-.38,1.39.47,2.61,1.75,3.08h0Z"/>
        <path class="cls-9" d="M96.93,226.44c8.33,1.96,17.4-1.8,21.86-9.12,1.67-2.76-2.65-5.27-4.32-2.52s-4.14,4.78-7.05,5.99-6.21,1.53-9.16.83c-1.31-.31-2.71.41-3.08,1.75-.35,1.27.43,2.76,1.75,3.08h0Z"/>
        <path class="cls-9" d="M79.94,227.89c7.28,3.97,15.23,8.08,23.76,7.83,7.04-.21,14.31-3.37,17.82-9.74,1.55-2.82-2.76-5.35-4.32-2.52-2.78,5.05-8.66,7.29-14.21,7.28-7.38-.01-14.22-3.72-20.53-7.16-2.83-1.54-5.35,2.77-2.52,4.32h0Z"/>
      </g>
      <path class="cls-8" d="M31.26,140.75h329.54c4.45,0,8.91.08,13.36,0,.19,0,.39,0,.58,0,3.22,0,3.22-5,0-5H45.2c-4.45,0-8.91-.08-13.36,0-.19,0-.39,0-.58,0-3.22,0-3.22,5,0,5h0Z"/>
    </g>
  </g>
</svg>